<?xml version="1.0" standalone="no"?>
<!DOCTYPE svg PUBLIC "-//W3C//DTD SVG 20010904//EN"
 "http://www.w3.org/TR/2001/REC-SVG-20010904/DTD/svg10.dtd">
<svg version="1.0" xmlns="http://www.w3.org/2000/svg"
 width="425.000000pt" height="425.000000pt" viewBox="0 0 425.000000 425.000000"
 preserveAspectRatio="xMidYMid meet">
<metadata>
Created by potrace 1.11, written by Peter Selinger 2001-2013
</metadata>
<g transform="translate(0.000000,425.000000) scale(0.100000,-0.100000)"
fill="#000000" stroke="none">
<path d="M1989 4226 c-114 -32 -219 -95 -309 -186 -67 -69 -107 -141 -150
-272 -18 -54 -37 -98 -43 -98 -5 0 -51 22 -101 50 -110 59 -185 80 -286 80
-99 0 -174 -20 -289 -76 -158 -78 -281 -218 -337 -384 -15 -42 -19 -84 -19
-180 l0 -125 42 -85 c23 -47 55 -108 72 -137 17 -29 27 -54 23 -57 -4 -2 -36
-12 -72 -21 -230 -60 -401 -221 -482 -455 -74 -216 19 -485 227 -652 70 -57
203 -125 263 -134 24 -4 46 -13 49 -20 3 -8 -7 -35 -21 -61 -84 -151 -98 -191
-104 -281 -17 -309 165 -572 463 -669 61 -19 101 -26 170 -26 111 -1 151 10
288 76 126 60 121 62 158 -52 51 -156 136 -273 263 -362 109 -77 174 -93 354
-87 175 6 246 25 328 88 113 88 250 299 261 404 8 70 17 72 121 21 215 -104
356 -117 528 -49 241 97 404 315 421 564 7 112 -18 215 -81 326 -52 93 -58
124 -23 124 38 1 155 46 227 89 123 73 206 174 270 327 45 109 58 219 36 314
-23 103 -94 244 -161 318 -83 91 -232 179 -346 203 -64 14 -64 28 0 139 74
128 85 170 78 303 -8 182 -65 306 -196 429 -57 53 -98 81 -175 118 -120 57
-170 70 -269 70 -105 0 -305 -67 -363 -121 -29 -27 -52 -15 -59 29 -18 109
-105 272 -189 355 -115 113 -273 178 -429 176 -51 0 -113 -6 -138 -13z m245
-1591 c101 -21 183 -64 257 -133 114 -107 169 -232 169 -382 0 -305 -225 -534
-525 -534 -157 0 -288 56 -389 165 -98 106 -140 215 -139 369 0 151 46 261
153 368 63 64 145 112 230 136 102 28 152 30 244 11z"/>
</g>
</svg>
